<svg id="Composant_3_1" data-name="Composant 3 – 1" xmlns="http://www.w3.org/2000/svg" xmlns:xlink="http://www.w3.org/1999/xlink" width="40" height="40" viewBox="0 0 40 40">
  <defs>
    <clipPath id="clip-path">
      <rect id="Rectangle_72" data-name="Rectangle 72" width="40" height="40" transform="translate(339 484)" fill="#fff"/>
    </clipPath>
  </defs>
  <g id="Groupe_de_masques_24" data-name="Groupe de masques 24" transform="translate(-339 -484)" clip-path="url(#clip-path)">
    <g id="lightbulb" transform="translate(339 484)">
      <g id="Groupe_113" data-name="Groupe 113">
        <g id="Groupe_112" data-name="Groupe 112">
          <path id="Tracé_70" data-name="Tracé 70" d="M20.03,8.622a10.3,10.3,0,0,0-6.809,18.02c1.628,1.628,1.48,5.106,1.443,5.143a.613.613,0,0,0,.185.481.683.683,0,0,0,.444.185H24.73a.613.613,0,0,0,.444-.185.7.7,0,0,0,.185-.481c0-.037-.185-3.515,1.443-5.143l.111-.111A10.271,10.271,0,0,0,20.03,8.622Zm5.92,17.058c-.037.037-.111.111-.111.148-1.443,1.554-1.7,4.107-1.739,5.328H15.923c-.037-1.221-.3-3.885-1.85-5.476a9.01,9.01,0,1,1,11.878,0Z" fill="#816bc7"/>
          <path id="Tracé_71" data-name="Tracé 71" d="M19.993,11.249a.629.629,0,1,0,0,1.258,6.735,6.735,0,0,1,6.735,6.735.629.629,0,1,0,1.258,0A7.959,7.959,0,0,0,19.993,11.249Z" fill="#816bc7"/>
          <path id="Tracé_72" data-name="Tracé 72" d="M24.1,33.154H15.886a1.554,1.554,0,1,0,0,3.108h8.178a1.6,1.6,0,0,0,1.591-1.554A1.563,1.563,0,0,0,24.1,33.154Zm0,1.813H15.886a.292.292,0,0,1-.3-.3.272.272,0,0,1,.3-.3h8.178a.292.292,0,0,1,.3.3A.264.264,0,0,1,24.1,34.968Z" fill="#816bc7"/>
          <path id="Tracé_73" data-name="Tracé 73" d="M22.88,36.892H17.107a1.554,1.554,0,1,0,0,3.108H22.88a1.563,1.563,0,0,0,1.554-1.554A1.54,1.54,0,0,0,22.88,36.892Zm0,1.813H17.107a.292.292,0,0,1-.3-.3.272.272,0,0,1,.3-.3H22.88a.3.3,0,0,1,0,.592Z" fill="#816bc7"/>
          <path id="Tracé_74" data-name="Tracé 74" d="M19.993,5.55a.624.624,0,0,0,.629-.629V.629a.629.629,0,0,0-1.258,0V4.921A.648.648,0,0,0,19.993,5.55Z" fill="#816bc7"/>
          <path id="Tracé_75" data-name="Tracé 75" d="M30.465,3.182a.6.6,0,0,0-.851.148L27.246,6.883a.61.61,0,0,0,.148.888.6.6,0,0,0,.333.111.591.591,0,0,0,.518-.3l2.368-3.552A.574.574,0,0,0,30.465,3.182Z" fill="#816bc7"/>
          <path id="Tracé_76" data-name="Tracé 76" d="M12.482,7.734a.6.6,0,0,0,.333-.111A.648.648,0,0,0,13,6.735L10.706,3.145a.641.641,0,1,0-1.073.7l2.294,3.589A.614.614,0,0,0,12.482,7.734Z" fill="#816bc7"/>
          <path id="Tracé_77" data-name="Tracé 77" d="M8,11.656,4.267,9.621a.651.651,0,0,0-.851.259.591.591,0,0,0,.259.851l3.737,2.035a.871.871,0,0,0,.3.074.61.61,0,0,0,.555-.333A.651.651,0,0,0,8,11.656Z" fill="#816bc7"/>
          <path id="Tracé_78" data-name="Tracé 78" d="M36.608,9.88a.651.651,0,0,0-.851-.259l-3.774,2.035a.651.651,0,0,0-.259.851.61.61,0,0,0,.555.333.7.7,0,0,0,.3-.074l3.774-2.035A.651.651,0,0,0,36.608,9.88Z" fill="#816bc7"/>
        </g>
      </g>
    </g>
  </g>
</svg>
