<svg xmlns="http://www.w3.org/2000/svg" xmlns:xlink="http://www.w3.org/1999/xlink" width="46.159" height="46.159" viewBox="0 0 46.159 46.159">
  <defs>
    <clipPath id="clip-path">
      <rect id="Rectangle_56" data-name="Rectangle 56" width="46.159" height="46.159" transform="translate(0)" fill="#fff" stroke="#707070" stroke-width="1"/>
    </clipPath>
  </defs>
  <g id="deezer" clip-path="url(#clip-path)">
    <g id="deezer-logo" transform="translate(0)">
      <path id="Tracé_58" data-name="Tracé 58" d="M23.079,0A23.079,23.079,0,1,0,46.159,23.079,23.08,23.08,0,0,0,23.079,0ZM12.125,32.7H5.839V30.8h6.286v1.9Zm0-2.475H5.839V28.319h6.286v1.906Zm0-2.476H5.839V25.843h6.286v1.905Zm0-2.477H5.839v-1.9h6.286v1.9Zm0-2.477H5.839v-1.9h6.286v1.9ZM19.174,32.7H12.887V30.8h6.287Zm0-2.475H12.887V28.319h6.287Zm0-2.476H12.887V25.843h6.287ZM26.222,32.7H19.936V30.8h6.287v1.9Zm0-2.475H19.936V28.319h6.287v1.906Zm0-2.476H19.936V25.843h6.287v1.905Zm0-2.477H19.936v-1.9h6.287v1.9Zm0-2.477H19.936v-1.9h6.287v1.9Zm0-2.477H19.936v-1.9h6.287v1.9Zm0-2.476H19.936V15.936h6.287v1.905ZM33.271,32.7H26.985V30.8h6.287v1.9Zm0-2.475H26.985V28.319h6.287v1.906Zm0-2.476H26.985V25.843h6.287v1.905Zm0-2.477H26.985v-1.9h6.287v1.9Zm0-2.477H26.985v-1.9h6.287v1.9ZM40.32,32.7H34.033V30.8h6.286v1.9Zm0-2.475H34.033V28.319h6.286v1.906Zm0-2.478H34.033v-1.9h6.286v1.9Zm0-2.476H34.033V23.365h6.286v1.906Zm0-2.477H34.033V20.888h6.286v1.906Zm0-2.477H34.033v-1.9h6.286v1.9Zm0-2.477H34.033v-1.9h6.286v1.9Zm-6.287-2.476v-1.9h6.286v1.9Z" fill="#47c299"/>
    </g>
  </g>
</svg>
