<svg xmlns="http://www.w3.org/2000/svg" xmlns:xlink="http://www.w3.org/1999/xlink" width="20" height="20" viewBox="0 0 20 20">
  <defs>
    <clipPath id="clip-path">
      <rect id="Rectangle_40" data-name="Rectangle 40" width="20" height="20" transform="translate(0.356 -0.48)" fill="#b5e3d4"/>
    </clipPath>
  </defs>
  <g id="insta" transform="translate(-0.356 0.48)" clip-path="url(#clip-path)">
    <path id="instagram" d="M10.365,20.331h-.2c-1.594,0-3.066-.037-4.5-.124A6.013,6.013,0,0,1,2.2,18.895,5.563,5.563,0,0,1,.33,15.877a13.374,13.374,0,0,1-.307-3.193C.013,11.941,0,11.062,0,10.167S.013,8.39.023,7.648A13.375,13.375,0,0,1,.33,4.454,5.563,5.563,0,0,1,2.2,1.436,6.013,6.013,0,0,1,5.665.124C7.1.037,8.57,0,10.167,0s3.066.037,4.5.124a6.013,6.013,0,0,1,3.466,1.312A5.562,5.562,0,0,1,20,4.454a13.375,13.375,0,0,1,.307,3.193c.01.742.021,1.622.023,2.516s-.013,1.778-.023,2.52a.794.794,0,1,1-1.588-.022c.01-.738.021-1.612.023-2.5s-.013-1.756-.023-2.494a12.167,12.167,0,0,0-.258-2.822,4.01,4.01,0,0,0-1.334-2.18,4.375,4.375,0,0,0-2.559-.958c-1.4-.085-2.838-.124-4.4-.121s-3.007.036-4.405.121A4.376,4.376,0,0,0,3.2,2.667a4.01,4.01,0,0,0-1.334,2.18,12.167,12.167,0,0,0-.258,2.822c-.01.738-.021,1.612-.023,2.5s.013,1.756.023,2.494a12.167,12.167,0,0,0,.258,2.822A4.01,4.01,0,0,0,3.2,17.664a4.375,4.375,0,0,0,2.559.958c1.4.085,2.838.125,4.4.121s3.007-.036,4.405-.121a4.375,4.375,0,0,0,2.559-.958,3.816,3.816,0,0,0,1.09-1.461.794.794,0,0,1,1.458.631,5.387,5.387,0,0,1-1.544,2.06,6.012,6.012,0,0,1-3.466,1.312c-1.371.083-2.78.124-4.3.124Zm4.723-10.165a4.964,4.964,0,1,0-4.964,4.964A4.969,4.969,0,0,0,15.089,10.165Zm-1.588,0A3.375,3.375,0,1,1,10.125,6.79,3.379,3.379,0,0,1,13.5,10.165Zm2.144-6.552A1.191,1.191,0,1,0,16.836,4.8,1.191,1.191,0,0,0,15.645,3.614Zm0,0" transform="translate(-0.349 -0.445)" fill="#b5e3d4"/>
  </g>
</svg>
