<svg id="Composant_2_1" data-name="Composant 2 – 1" xmlns="http://www.w3.org/2000/svg" xmlns:xlink="http://www.w3.org/1999/xlink" width="40" height="40" viewBox="0 0 40 40">
  <defs>
    <clipPath id="clip-path">
      <rect id="Rectangle_71" data-name="Rectangle 71" width="40" height="40" transform="translate(1217 484)" fill="#fff"/>
    </clipPath>
  </defs>
  <g id="Groupe_de_masques_26" data-name="Groupe de masques 26" transform="translate(-1217 -484)" clip-path="url(#clip-path)">
    <path id="layers" d="M39.174,18.6,32.75,15.391l6.424-3.212a1.564,1.564,0,0,0,0-2.8L20.737.165a1.564,1.564,0,0,0-1.4,0L.9,9.384a1.564,1.564,0,0,0,0,2.8l6.424,3.212L.9,18.6a1.564,1.564,0,0,0,0,2.8l6.424,3.212L.9,27.821a1.564,1.564,0,0,0,0,2.8l18.438,9.219a1.563,1.563,0,0,0,1.4,0l18.438-9.219a1.564,1.564,0,0,0,0-2.8L32.75,24.609,39.174,21.4a1.564,1.564,0,0,0,0-2.8ZM20.038,3.309l14.944,7.472L20.038,18.253,5.094,10.781Zm14.944,25.91L20.038,36.691,5.094,29.219l5.725-2.863,8.52,4.26a1.563,1.563,0,0,0,1.4,0l8.52-4.26ZM20.038,27.472,5.094,20l5.725-2.863,8.52,4.26a1.563,1.563,0,0,0,1.4,0l8.52-4.26L34.981,20Zm0,0" transform="translate(1216.962 484)" fill="#816bc7"/>
  </g>
</svg>
