<svg xmlns="http://www.w3.org/2000/svg" xmlns:xlink="http://www.w3.org/1999/xlink" width="19" height="19" viewBox="0 0 19 19">
  <defs>
    <clipPath id="clip-path">
      <path id="Rectangle_34" data-name="Rectangle 34" d="M9.5,0h0A9.5,9.5,0,0,1,19,9.5v0A9.5,9.5,0,0,1,9.5,19H0a0,0,0,0,1,0,0V9.5A9.5,9.5,0,0,1,9.5,0Z" transform="translate(1685 635)" fill="#836c85"/>
    </clipPath>
  </defs>
  <g id="Groupe_de_masques_6" data-name="Groupe de masques 6" transform="translate(-1685 -635)" clip-path="url(#clip-path)">
    <path id="star" d="M14.485,5.3a.77.77,0,0,0-.664-.531L9.629,4.386,7.971.507a.772.772,0,0,0-1.42,0L4.894,4.386.7,4.767A.773.773,0,0,0,.264,6.118L3.432,8.9,2.5,13.012a.771.771,0,0,0,1.148.834l3.616-2.161,3.614,2.161a.772.772,0,0,0,1.149-.834L11.09,8.9l3.168-2.778a.772.772,0,0,0,.226-.82Zm0,0" transform="translate(1687.178 637.08)" fill="#ffc107"/>
  </g>
</svg>
