<svg xmlns="http://www.w3.org/2000/svg" xmlns:xlink="http://www.w3.org/1999/xlink" width="46.159" height="46.159" viewBox="0 0 46.159 46.159">
  <defs>
    <clipPath id="clip-path">
      <rect id="Rectangle_55" data-name="Rectangle 55" width="46.159" height="46.159" transform="translate(0)" fill="#fff" stroke="#707070" stroke-width="1"/>
    </clipPath>
  </defs>
  <g id="soundcloud" clip-path="url(#clip-path)">
    <g id="soundcloud-2" data-name="soundcloud" transform="translate(0 0)">
      <circle id="Ellipse_31" data-name="Ellipse 31" cx="23.079" cy="23.079" r="23.079" fill="#ff6a22"/>
      <g id="Groupe_94" data-name="Groupe 94" transform="translate(6.362 15.819)">
        <path id="Tracé_61" data-name="Tracé 61" d="M9.746,35.461a.134.134,0,0,1-.268,0l-.244-1.826.244-1.856a.138.138,0,0,1,.134-.131.14.14,0,0,1,.134.131l.29,1.858Zm1.243,1.109a.14.14,0,0,1-.279,0l-.328-2.937.328-3a.14.14,0,0,1,.279,0l.374,3Zm1.341.5a.172.172,0,0,1-.167.163A.17.17,0,0,1,12,37.068l-.311-3.432L12,30.073a.171.171,0,0,1,.168-.166.174.174,0,0,1,.167.166l.353,3.562Zm1.354.109a.2.2,0,0,1-.395,0L13,33.636l.294-3.66a.2.2,0,0,1,.395,0l.334,3.66Zm1.362.028a.224.224,0,0,1-.448,0l-.278-3.57.278-3.4a.224.224,0,0,1,.448,0l.315,3.4Zm1.375,0v0a.254.254,0,0,1-.508,0l-.26-3.57.26-5.525a.254.254,0,0,1,.508,0l.294,5.527Zm1.365,0v0a.282.282,0,0,1-.564,0l-.245-3.547.245-6.789a.282.282,0,0,1,.564,0l.276,6.789ZM19.2,37.15v0a.31.31,0,0,1-.62,0l-.228-3.511s.228-7.354.228-7.356a.31.31,0,0,1,.62,0l.257,7.356Zm1.407-.023a.338.338,0,0,1-.677,0l-.212-3.49.212-7.6a.338.338,0,0,1,.677,0l.236,7.6Zm1.416-.031v0a.367.367,0,0,1-.733,0l-.2-3.456.193-7.408a.368.368,0,0,1,.735,0l.219,7.408Zm1.428-.021v0a.4.4,0,0,1-.792,0l-.176-3.436.176-7.137a.4.4,0,0,1,.792,0l.2,7.139Zm1.457-.362-.018.337a.44.44,0,0,1-.127.3.428.428,0,0,1-.3.123.429.429,0,0,1-.424-.406.057.057,0,0,1,0-.015s-.163-3.409-.163-3.415l.16-8.41,0-.081a.427.427,0,0,1,.2-.354.41.41,0,0,1,.461,0,.427.427,0,0,1,.19.351l.179,8.495Zm1.416.293v0a.453.453,0,0,1-.905,0l-.093-1.658-.092-1.7.185-9.218v-.046a.456.456,0,0,1,.168-.349.45.45,0,0,1,.285-.1.457.457,0,0,1,.232.063.473.473,0,0,1,.223.387l.2,9.266Zm12.232.456h-11.4a.486.486,0,0,1-.445-.473V23.937c0-.24.087-.364.4-.483a7.342,7.342,0,0,1,2.632-.492,7.26,7.26,0,0,1,7.227,6.613,4.1,4.1,0,1,1,1.59,7.887Z" transform="translate(-9.234 -22.962)" fill="#f1f2f2"/>
      </g>
    </g>
  </g>
</svg>
