<svg xmlns="http://www.w3.org/2000/svg" xmlns:xlink="http://www.w3.org/1999/xlink" width="46.159" height="46.159" viewBox="0 0 46.159 46.159">
  <defs>
    <clipPath id="clip-path">
      <rect id="Rectangle_53" data-name="Rectangle 53" width="46.159" height="46.159" fill="#fff" stroke="#707070" stroke-width="1"/>
    </clipPath>
  </defs>
  <g id="Groupe_de_masques_18" data-name="Groupe de masques 18" clip-path="url(#clip-path)">
    <path id="spotify" d="M23.079,0A23.079,23.079,0,1,0,46.159,23.079,23.079,23.079,0,0,0,23.079,0ZM33.124,33.494a1.578,1.578,0,0,1-2.159.566,23.232,23.232,0,0,0-12.229-2.713,30.335,30.335,0,0,0-6.343.838,1.578,1.578,0,0,1-.837-3.044,32.862,32.862,0,0,1,7-.946,30.811,30.811,0,0,1,6.739.488,22.746,22.746,0,0,1,7.266,2.652A1.578,1.578,0,0,1,33.124,33.494ZM36.058,27.4a1.869,1.869,0,0,1-2.557.671c-4.913-2.871-10.588-3.332-14.485-3.214a35.94,35.94,0,0,0-7.514.992,1.869,1.869,0,0,1-.991-3.605A38.916,38.916,0,0,1,18.8,21.124a36.5,36.5,0,0,1,7.983.578,26.946,26.946,0,0,1,8.607,3.142A1.869,1.869,0,0,1,36.058,27.4Zm1.8-5.541a2.282,2.282,0,0,1-1.155-.314C25.027,14.72,9.877,18.778,9.725,18.82A2.293,2.293,0,0,1,8.507,14.4a47.731,47.731,0,0,1,10.164-1.375,44.783,44.783,0,0,1,9.792.709,33.049,33.049,0,0,1,10.558,3.854,2.293,2.293,0,0,1-1.159,4.273Z" fill="#00d95f"/>
  </g>
</svg>
