<svg xmlns="http://www.w3.org/2000/svg" xmlns:xlink="http://www.w3.org/1999/xlink" width="46.159" height="46.159" viewBox="0 0 46.159 46.159">
  <defs>
    <clipPath id="clip-path">
      <rect id="Rectangle_54" data-name="Rectangle 54" width="46.159" height="46.159" fill="#fff" stroke="#707070" stroke-width="1"/>
    </clipPath>
  </defs>
  <g id="yt" clip-path="url(#clip-path)">
    <g id="youtube" transform="translate(0 6.92)">
      <path id="Tracé_59" data-name="Tracé 59" d="M45.208,5.057A5.783,5.783,0,0,0,41.139.989C37.527,0,23.079,0,23.079,0S8.631,0,5.019.951A5.9,5.9,0,0,0,.95,5.057C0,8.669,0,16.159,0,16.159s0,7.528.95,11.1A5.784,5.784,0,0,0,5.019,31.33c3.65.989,18.06.989,18.06.989s14.448,0,18.06-.951A5.783,5.783,0,0,0,45.208,27.3c.95-3.612.95-11.1.95-11.1s.038-7.529-.951-11.14Zm0,0" transform="translate(0 0)" fill="red"/>
      <path id="Tracé_60" data-name="Tracé 60" d="M26.822,27.251l12.015-6.92-12.015-6.92Zm0,0" transform="translate(-8.343 -4.172)" fill="#fff"/>
    </g>
  </g>
</svg>
