<svg xmlns="http://www.w3.org/2000/svg" xmlns:xlink="http://www.w3.org/1999/xlink" width="31.785" height="31.785" viewBox="0 0 31.785 31.785">
  <defs>
    <clipPath id="clip-path">
      <rect id="Rectangle_41" data-name="Rectangle 41" width="31.785" height="31.785" transform="translate(0)" fill="#fff" stroke="#707070" stroke-width="1"/>
    </clipPath>
  </defs>
  <g id="FB" clip-path="url(#clip-path)">
    <path id="facebook" d="M28.715,20.544a1.167,1.167,0,0,0,1.167-1.167V4.669A4.674,4.674,0,0,0,25.213,0H4.669A4.674,4.674,0,0,0,0,4.669V25.213a4.674,4.674,0,0,0,4.669,4.669H25.213a4.674,4.674,0,0,0,4.669-4.669,1.167,1.167,0,1,0-2.335,0,2.337,2.337,0,0,1-2.335,2.335h-5.72V19.027h2.7A1.168,1.168,0,0,0,23.354,18l.155-1.284a1.167,1.167,0,0,0-1.159-1.307H19.494V11.5a1.751,1.751,0,0,1,1.751-1.751H22.7A1.167,1.167,0,0,0,23.871,8.58V7.4a1.166,1.166,0,0,0-1.047-1.161c-.592-.06-1.218-.109-1.58-.109A5.4,5.4,0,0,0,17.5,7.7a5.314,5.314,0,0,0-1.626,3.8v3.9H13.249a1.167,1.167,0,0,0-1.167,1.167V17.86a1.167,1.167,0,0,0,1.167,1.167h2.626v8.521H4.669a2.337,2.337,0,0,1-2.335-2.335V4.669A2.337,2.337,0,0,1,4.669,2.335H25.213a2.337,2.337,0,0,1,2.335,2.335V19.377a1.167,1.167,0,0,0,1.167,1.167Zm0,0" transform="translate(0.523 1.143)" fill="#b5e3d4"/>
  </g>
</svg>
