<svg xmlns="http://www.w3.org/2000/svg" xmlns:xlink="http://www.w3.org/1999/xlink" width="31.785" height="31.785" viewBox="0 0 31.785 31.785">
  <defs>
    <clipPath id="clip-path">
      <rect id="Rectangle_40" data-name="Rectangle 40" width="31.785" height="31.785" transform="translate(0)" fill="#b5e3d4"/>
    </clipPath>
  </defs>
  <g id="INSTA" clip-path="url(#clip-path)">
    <path id="instagram" d="M16.473,32.31h-.322c-2.533.006-4.873-.058-7.149-.2A9.556,9.556,0,0,1,3.5,30.028a8.841,8.841,0,0,1-2.971-4.8,21.254,21.254,0,0,1-.488-5.075C.02,18.977,0,17.58,0,16.158s.02-2.825.036-4A21.256,21.256,0,0,1,.524,7.079,8.841,8.841,0,0,1,3.5,2.282,9.556,9.556,0,0,1,9,.2c2.276-.138,4.616-.2,7.154-.2s4.873.058,7.149.2a9.556,9.556,0,0,1,5.508,2.085,8.84,8.84,0,0,1,2.971,4.8,21.255,21.255,0,0,1,.488,5.075c.016,1.18.033,2.577.036,4s-.02,2.825-.036,4a1.262,1.262,0,1,1-2.524-.035c.016-1.173.033-2.561.036-3.97s-.02-2.791-.036-3.964A19.336,19.336,0,0,0,29.339,7.7a6.373,6.373,0,0,0-2.12-3.464,6.953,6.953,0,0,0-4.066-1.522c-2.222-.135-4.51-.2-7-.192s-4.779.057-7,.192A6.955,6.955,0,0,0,5.09,4.238,6.373,6.373,0,0,0,2.97,7.7a19.336,19.336,0,0,0-.409,4.485c-.016,1.173-.033,2.561-.036,3.97s.02,2.791.036,3.964a19.336,19.336,0,0,0,.409,4.485,6.373,6.373,0,0,0,2.12,3.464,6.953,6.953,0,0,0,4.066,1.522c2.222.135,4.511.2,7,.192s4.779-.057,7-.192a6.953,6.953,0,0,0,4.066-1.522,6.064,6.064,0,0,0,1.733-2.321,1.262,1.262,0,0,1,2.316,1,8.562,8.562,0,0,1-2.454,3.274,9.554,9.554,0,0,1-5.508,2.085c-2.179.133-4.418.2-6.833.2ZM23.98,16.155a7.888,7.888,0,1,0-7.888,7.888A7.9,7.9,0,0,0,23.98,16.155Zm-2.524,0a5.364,5.364,0,1,1-5.364-5.364A5.37,5.37,0,0,1,21.455,16.155ZM24.863,5.743a1.893,1.893,0,1,0,1.893,1.893A1.893,1.893,0,0,0,24.863,5.743Zm0,0" transform="translate(-1.12 0.056)" fill="#b5e3d4"/>
  </g>
</svg>
