<svg xmlns="http://www.w3.org/2000/svg" xmlns:xlink="http://www.w3.org/1999/xlink" viewBox="0 0 741.51 1195.64"><defs><style>.cls-1{fill:#55b896;}.cls-2{fill:url(#Dégradé_sans_nom_19);}</style><linearGradient id="Dégradé_sans_nom_19" x1="457.83" y1="1069.97" x2="450.55" y2="67.99" gradientUnits="userSpaceOnUse"><stop offset="0.22" stop-color="#55b896"/><stop offset="0.93" stop-color="#fff"/></linearGradient></defs><title>Fichier 12</title><g id="Calque_2" data-name="Calque 2"><g id="LOGO"><path id="Rond_central" class="cls-1" d="M550.74,920.3c0,149-118.45,270.41-266.31,275.16-3,.14-6,.18-9,.18a275.13,275.13,0,0,1-76.65-10.83C83.93,1151.67,0,1045.8,0,920.3,0,768.2,123.29,644.9,275.39,644.9a274.41,274.41,0,0,1,125.14,30c2,1.1,4.1,2.17,6.13,3.23A275.35,275.35,0,0,1,550.74,920.3Z"/><path id="Partie_droite_logo" class="cls-2" d="M741.51,750.82c0,245.67-199.16,444.82-444.82,444.82-4.11,0-8.21,0-12.26-.18,147.86-4.75,266.31-126.11,266.31-275.16A275.35,275.35,0,0,0,406.66,678.14c-2-1.06-4.1-2.13-6.13-3.23-127.9-68.77-218.29-198.33-232.44-350q-2-20.73-2-42A443.13,443.13,0,0,1,267.65,0C279.91,151.92,368.5,282.21,495,352.6h0c5.8,3.27,11.61,6.36,17.6,9.26l0,.05c125,69.5,212.89,197.45,226.86,346.92Q741.53,729.58,741.51,750.82Z"/></g></g></svg>